<svg width="52" height="48" viewBox="0 0 52 48" fill="none" xmlns="http://www.w3.org/2000/svg">
<path d="M26 9C16.946 9 9.125 15.065 6.74 23.591L6.63 24L6.643 24.054C8.878 32.65 16.611 38.834 25.633 38.997L26 39C35.053 39 42.875 32.936 45.26 24.41L45.37 23.999L45.357 23.947C43.123 15.35 35.389 9.167 26.367 9.003L26 9Z" fill="#A8B7AB" fill-opacity="0.2"/>
<path d="M26 5C37.18 5 46.794 12.705 49.346 23.413L49.479 24L49.346 24.587C46.794 35.295 37.181 43 26 43C14.82 43 5.206 35.295 2.654 24.588L2.521 24.001L2.569 23.785C4.985 12.884 14.69 5 26 5ZM26 7C15.88 7 7.16 13.887 4.691 23.509L4.571 24.001L4.603 24.141C6.891 33.705 15.331 40.654 25.253 40.987L25.63 40.997L26 41C36.243 41 45.052 33.944 47.397 24.139L47.428 23.999L47.397 23.861C45.109 14.295 36.669 7.346 26.747 7.013L26.37 7.003L26 7ZM26 17C26.9192 17 27.8295 17.1811 28.6788 17.5328C29.5281 17.8846 30.2997 18.4002 30.9497 19.0503C31.5998 19.7003 32.1154 20.4719 32.4672 21.3212C32.8189 22.1705 33 23.0807 33 24C33 24.9193 32.8189 25.8295 32.4672 26.6788C32.1154 27.5281 31.5998 28.2997 30.9497 28.9497C30.2997 29.5998 29.5281 30.1154 28.6788 30.4672C27.8295 30.8189 26.9192 31 26 31C24.1435 31 22.363 30.2625 21.0502 28.9497C19.7375 27.637 19 25.8565 19 24C19 22.1435 19.7375 20.363 21.0502 19.0503C22.363 17.7375 24.1435 17 26 17ZM26 19C24.6739 19 23.4021 19.5268 22.4645 20.4645C21.5268 21.4021 21 22.6739 21 24C21 25.3261 21.5268 26.5979 22.4645 27.5355C23.4021 28.4732 24.6739 29 26 29C27.3261 29 28.5978 28.4732 29.5355 27.5355C30.4732 26.5979 31 25.3261 31 24C31 22.6739 30.4732 21.4021 29.5355 20.4645C28.5978 19.5268 27.3261 19 26 19Z" fill="#A8B7AB"/>
</svg>
