<svg width="52" height="49" viewBox="0 0 52 49" fill="none" xmlns="http://www.w3.org/2000/svg">
<g clip-path="url(#clip0_424_14373)">
<path d="M41 16.9365V44.9375H11V16.9365H41Z" fill="#E2C391" fill-opacity="0.2"/>
<path d="M26 0.9375C31.4292 0.9375 35.8479 5.26417 35.9962 10.6576L36 10.9375V12.9375H43C44.0544 12.9375 44.9182 13.7534 44.9945 14.7882L45 14.9375V46.9375C45 47.9919 44.1841 48.8557 43.1493 48.932L43 48.9375H9C7.94564 48.9375 7.08183 48.1216 7.00549 47.0868L7 46.9375V14.9375C7 13.8831 7.81588 13.0193 8.85074 12.943L9 12.9375H16V10.9375C16 5.41465 20.4772 0.9375 26 0.9375ZM43 14.9375H9V46.9375H43V14.9375ZM26 28.9375C27.6569 28.9375 29 30.2806 29 31.9375C29 33.5944 27.6569 34.9375 26 34.9375C24.3431 34.9375 23 33.5944 23 31.9375C23 30.2806 24.3431 28.9375 26 28.9375ZM26 30.9375C25.4477 30.9375 25 31.3852 25 31.9375C25 32.4898 25.4477 32.9375 26 32.9375C26.5523 32.9375 27 32.4898 27 31.9375C27 31.3852 26.5523 30.9375 26 30.9375ZM26 2.9375C21.6651 2.9375 18.1355 6.38534 18.0038 10.6883L18 10.9375V12.9375H34V10.9375C34 6.51922 30.4183 2.9375 26 2.9375Z" fill="#E2C391"/>
</g>
<defs>
<clipPath id="clip0_424_14373">
<rect width="51.4828" height="48" fill="white" transform="translate(0 0.9375)"/>
</clipPath>
</defs>
</svg>
