<svg width="55" height="48" viewBox="0 0 55 48" fill="none" xmlns="http://www.w3.org/2000/svg">
<path d="M30 5L30.585 5.005C34.875 5.081 39.422 5.989 44.23 7.742L45 8.03V35.4L44.992 35.53C44.9727 35.6781 44.9205 35.82 44.8391 35.9453C44.7578 36.0706 44.6494 36.1761 44.522 36.254L44.406 36.314L30 42.716V25C30 24.7551 29.91 24.5187 29.7473 24.3356C29.5845 24.1526 29.3603 24.0357 29.117 24.007L29 24H15V8.029L15.77 7.743C20.567 5.993 25.106 5.085 29.39 5.006L30 5Z" fill="#9BBEC7" fill-opacity="0.2"/>
<path d="M30 1C35.599 1 41.518 2.275 47.755 4.816C48.0978 4.95562 48.3951 5.18761 48.6138 5.48616C48.8326 5.78471 48.9642 6.1381 48.994 6.507L49 6.67V35.4C49 36.3285 48.7414 37.2387 48.2532 38.0286C47.765 38.8184 47.0665 39.4568 46.236 39.872L46.031 39.969L30.437 46.899L30 47L27.539 46H29.99C29.9926 46 29.9952 45.9989 29.997 45.997L30 45.99V44.905L45.218 38.142C45.6877 37.9334 46.096 37.6077 46.4036 37.196C46.7113 36.7844 46.908 36.3006 46.975 35.791L46.994 35.597L47 35.401V6.669L46.308 6.391C40.557 4.128 35.121 3 30 3C24.879 3 19.443 4.128 13.692 6.391L13 6.67L12.999 24H11V6.669C10.9998 6.29885 11.1024 5.93592 11.2962 5.6206C11.4901 5.30528 11.7676 5.04994 12.098 4.883L12.245 4.816C18.483 2.275 24.401 1 30 1Z" fill="#9BBEC7"/>
<path d="M7 24H29C29.2652 24 29.5196 24.1054 29.7071 24.2929C29.8946 24.4804 30 24.7348 30 25V45.99C30 45.9927 29.9989 45.9952 29.9971 45.9971C29.9952 45.9989 29.9927 46 29.99 46H7C6.73478 46 6.48043 45.8946 6.29289 45.7071C6.10536 45.5196 6 45.2652 6 45V25C6 24.7348 6.10536 24.4804 6.29289 24.2929C6.48043 24.1054 6.73478 24 7 24Z" stroke="#222222" stroke-width="2"/>
<path d="M24 25V20C24 18.4087 23.3679 16.8826 22.2426 15.7574C21.1174 14.6321 19.5913 14 18 14C16.4087 14 14.8826 14.6321 13.7574 15.7574C12.6321 16.8826 12 18.4087 12 20V25" stroke="#222222" stroke-width="2"/>
<path d="M18 37C19.1046 37 20 36.1046 20 35C20 33.8954 19.1046 33 18 33C16.8954 33 16 33.8954 16 35C16 36.1046 16.8954 37 18 37Z" stroke="#222222" stroke-width="2"/>
</svg>
