<svg width="24" height="24" viewBox="0 0 24 24" fill="none" xmlns="http://www.w3.org/2000/svg">
<path d="M16 15H8C5.79086 15 4 16.7909 4 19V21H20V19C20 16.7909 18.2091 15 16 15Z" fill="black" fill-opacity="0.15"/>
<path d="M12 11C14.2091 11 16 9.20914 16 7C16 4.79086 14.2091 3 12 3C9.79086 3 8 4.79086 8 7C8 9.20914 9.79086 11 12 11Z" fill="black" fill-opacity="0.15"/>
<path d="M23 9L19.8001 12.1999L18 10.4M8 15H16C18.2091 15 20 16.7909 20 19V21H4V19C4 16.7909 5.79086 15 8 15ZM16 7C16 9.20914 14.2091 11 12 11C9.79086 11 8 9.20914 8 7C8 4.79086 9.79086 3 12 3C14.2091 3 16 4.79086 16 7Z" stroke="black" stroke-width="2" stroke-linecap="round" stroke-linejoin="round"/>
</svg>
